<?xml version="1.0" encoding="UTF-8" standalone="no"?>
<svg
   version="1.1"
   fill="#0a58ca"
   width="109.76"
   height="178.88"
   viewBox="0 0 109.76 178.88"
   xmlns="http://www.w3.org/2000/svg"
   xmlns:svg="http://www.w3.org/2000/svg">
  <defs />
  <g>
    <path
       d="m 49.204068,177.69005 c -6.904353,-0.30174 -17.527331,-9.82188 -17.196465,-12.84037 7.684175,3.87892 13.58198,13.5103 23.57115,9.94848 8.898056,-0.54791 18.037016,-5.2649 21.134792,-14.05235 2.843065,-6.54258 3.834982,-13.83376 7.589986,-19.98612 1.080991,-8.71429 9.343232,-14.66252 10.789442,-22.90496 -1.87564,-2.89529 -6.110229,3.16966 -5.513862,-2.58747 5.138422,-2.42717 9.716692,-4.92627 8.884092,-11.6181 2.504217,-10.076759 4.258967,11.6427 5.772617,1.49965 1.30759,-2.88297 0.48903,-14.025243 -3.9501,-8.170223 C 94.164333,80.75268 98.562273,62.294716 90.497223,46.573164 85.487619,33.945516 72.791124,25.435744 59.366418,24.545735 52.854544,23.399011 44.330303,24.243517 40.062309,27.230698 30.582247,26.552976 22.012499,35.473179 17.907427,43.687853 12.132667,55.575407 13.031221,69.183725 11.264249,81.973458 11.864749,86.35279 7.7886795,99.38659 5.5759545,89.19908 1.7632655,80.54451 -1.4642886,71.114623 0.70955446,61.561654 2.3206425,52.608988 0.92531446,42.539522 7.0961245,34.991489 13.888238,25.395104 20.704542,13.797086 32.859989,10.480024 42.614128,10.205636 47.011131,-1.7150411 57.095248,0.21031129 64.778869,2.7762553 72.905632,1.0705934 80.461135,3.3251007 c 4.021552,5.2818576 13.862498,4.9861647 15.136608,12.5691503 -6.098957,4.389807 11.834857,5.245385 4.796187,11.229713 2.38746,5.983262 4.03519,12.104835 5.64687,18.315292 2.37667,8.554003 1.90482,17.582712 0.23013,26.173353 -2.13867,7.92498 -1.61432,15.595062 2.85865,22.437027 1.69084,9.286514 -2.87941,18.174774 -7.1448,26.086164 -4.435397,4.28579 -7.844517,8.26441 -8.644447,14.61338 -3.97353,10.64704 -9.587119,20.55796 -14.005718,30.99507 -6.289347,9.68693 -19.230216,12.84545 -30.130547,11.9458 z m 51.831092,-61.10962 c -1.564257,-5.30965 -1.559077,4.37055 0,0 z M 100.1985,46.475915 c -3.895347,-3.373852 -2.997767,3.169007 0,0 z m -1.082177,-5.034326 c -5.22839,-1.619631 -0.23268,-9.145206 -5.55808,-5.058214 -1.45888,2.824285 2.82427,6.901593 5.55808,5.058214 z M 17.526494,33.046671 c 6.250427,-2.949427 -2.218607,-6.023841 -1.611978,-0.06522 0.368297,0.65718 1.186425,0.469268 1.611978,0.06522 z m 75.172819,-0.07294 C 98.493693,26.697947 87.97907,19.996812 85.662797,14.426438 79.454335,8.9003398 70.776808,13.109741 64.066304,11.160105 67.898324,10.10406 68.477905,6.9951233 63.394485,6.9862389 58.427273,6.2708311 51.759496,6.3005351 50.832991,10.249572 c -3.795255,1.725794 -17.990372,7.134484 -7.468491,8.350433 8.180915,-1.800591 15.831902,-0.362756 24.08644,-1.351294 6.082506,0.230963 8.10014,6.295544 13.663234,6.614151 3.612663,3.326445 5.142693,10.804261 11.585139,9.110869 z M 21.139214,27.601589 c -0.841289,-2.272503 -0.139195,2.006558 0,0 z m 4.825051,-3.2 c 7.373475,-4.5214 -11.434403,1.490123 0,0 z m 5.00223,-4.45004 c 4.831769,0.154139 -0.780487,-3.422787 0,0 z M 28.608376,162.68787 c -1.374529,-5.17342 3.706061,2.67871 0,0 z m -1.983992,-3.60206 c 0.558223,-2.55171 2.463065,1.54188 0,0 z m 27.718836,-0.89297 c -5.027375,1.57998 -12.983433,-6.83707 -3.399763,-5.55014 2.987749,-2.12195 -9.886141,-4.42431 -3.092491,-5.55091 7.341455,5.23943 16.775241,-2.45359 21.249378,-4.71009 -0.354076,4.85822 -7.596308,8.60006 -8.794017,10.53347 3.060618,3.39017 10.785073,-5.13837 8.010813,2.28731 -2.809374,4.80312 -5.237228,-2.59114 -8.040074,2.01917 -1.761216,1.01356 -3.93358,1.70226 -5.933846,0.97119 z m 1.310461,-5.8676 c -1.306028,-3.66502 -2.748356,3.12195 0,0 z m 11.009706,6.18368 c -0.09522,-1.71099 1.487777,0.85032 0,0 z m -34.736892,-9.62304 c -6.815086,-6.96137 -3.944468,-17.90201 -9.001237,-25.76204 -3.20052,-8.5976 6.753184,-13.87648 11.196338,-19.75262 2.330814,-4.50787 15.481597,-6.55002 7.345263,-0.92446 -2.755525,8.15218 9.620323,4.67654 14.433117,5.59069 3.179801,-4.28894 11.508443,1.68987 11.967321,-4.60432 -4.047484,0.0422 -7.378486,-6.159105 -9.499959,-3.74659 -4.847892,-6.215698 4.117329,-8.532998 1.019246,-14.57098 -2.997438,-8.145517 2.040764,-16.705797 9.497441,-20.2045 6.719587,-2.987818 14.91421,-1.264988 21.317775,1.706866 3.395843,7.044563 -9.58085,1.409214 -13.309105,2.685953 -5.95379,-1.680087 -13.582259,8.648884 -3.726044,5.877275 6.204555,-2.465793 14.582602,1.17799 15.960012,7.844557 -3.721767,6.987865 -10.625422,-9.081903 -9.514104,0.754801 -1.721558,6.290078 -11.702947,-1.246249 -6.411922,-5.244971 -3.732666,2.329077 -7.891055,6.137908 -9.577312,2.581782 -4.911249,4.135777 4.371569,10.07182 0.650589,14.568515 6.072816,4.166602 11.735716,8.640612 15.676119,15.053182 8.46594,7.22865 1.059738,16.32374 0.29559,24.85064 0.274301,4.5901 -7.095804,8.32695 -3.629613,1.58904 2.383629,-3.43886 1.915818,-12.85909 -2.99964,-6.00405 -3.702276,5.84477 -10.156667,13.07243 -17.21786,12.8414 -3.801121,-3.72922 -0.429835,2.4297 -4.647502,0.63694 -8.976917,-1.68 -16.836089,-9.60826 -19.510811,-17.79183 5.369686,-7.48037 15.891112,-4.20224 23.69408,-5.37609 7.050828,-3.08878 15.542423,4.74199 20.935087,-0.20509 1.770976,-6.84097 -5.696411,-18.15415 -11.835995,-9.78331 -6.231816,2.48761 -14.973057,7.70404 -18.758844,-0.59484 -6.110908,-3.05344 -11.297768,-0.23142 -13.709738,6.28008 -6.218307,3.34226 -1.8987,10.81346 -1.794011,16.54651 0.551038,5.14021 2.437911,10.81932 2.015934,15.64953 -0.286738,-0.16402 -0.573477,-0.32805 -0.860215,-0.49207 z m 20.479999,-7.09082 c 3.906623,1.84512 16.708624,-2.82203 7.137557,-4.80733 -3.129598,0.18523 -15.308876,-1.49234 -11.007015,3.67502 1.270137,0.45105 2.63068,0.582 3.869458,1.13231 z m 3.570355,-10.00109 c 3.67176,0.67574 17.871194,-1.14043 10.047478,-5.93742 -7.886545,1.90093 -16.152713,-0.51869 -23.812531,0.52321 -3.574371,7.75858 9.800069,4.68047 13.765053,5.41421 z m 22.483213,-6.22961 c -0.724393,-3.38854 -3.439981,1.20069 0,0 z m 6.187974,-46.842771 c -1.771525,-4.974909 -13.677133,-3.257651 -12.53657,-0.966282 4.157513,-1.297303 8.427661,0.29007 12.53657,0.966282 z M 75.187262,148.5531 c -5.953358,-2.27738 7.191087,-6.2334 -0.06917,-2.84679 -1.396094,0.89749 3.311599,4.13985 0.06917,2.84679 z m -55.716733,-4.04834 c -1.669332,-5.74237 -6.625335,-11.15321 -5.588353,-17.32856 2.245714,5.43153 7.028461,14.74195 6.407593,18.61361 z m -7.053608,-19.28369 c -2.4220929,0.8976 -7.9169385,-5.25028 -2.7200279,-3.6757 -3.4698026,-4.44573 3.2780149,-4.45934 2.3504269,0.31791 0.219894,0.49988 2.443604,4.95146 0.369601,3.35779 z m -6.8023815,-12.6783 c -4.72028704,-4.82778 5.8687695,0.27277 0,0 z m 0.245812,-3.44244 c -4.627052,-3.48996 4.7423175,-16.475213 3.9555266,-6.62988 0.5719069,2.71105 0.5962999,8.76528 -3.9555266,6.62988 z m -4.484033,-5.74587 c -1.24038292,-4.04994 -3.1975089,-14.717048 2.317723,-14.18023 1.536922,4.451489 0.836485,10.66045 -2.317723,14.18023 z M 25.668159,97.867752 c 0.783815,-5.151991 7.025306,1.605778 0.632741,0.264636 l -0.385307,-0.16115 z m 10.932573,-8.052336 c 0.112202,-2.74435 6.478914,-9.571324 0.453764,-8.944942 2.507166,8.609038 -10.770174,4.056365 -7.715908,-0.550639 -2.372808,1.348982 -6.66064,8.31326 -9.277278,4.057102 1.295387,-8.471443 11.135173,-8.333756 17.727092,-8.34535 8.022246,-3.607855 -6.320187,-6.743474 -9.804241,-4.283269 -3.793723,1.470929 -14.688045,1.276048 -7.238945,-3.484653 7.127889,-1.175848 16.872566,-8.025233 22.700873,-1.293629 3.051546,4.685865 5.697813,11.798123 0.332324,15.299034 -0.189277,2.503121 -6.704299,4.778546 -0.295833,3.075493 3.138282,1.084335 -5.774607,5.776834 -6.881848,4.470853 z M 32.406495,77.521589 c -1.164371,-1.097234 -2.872763,1.367213 0,0 z m 37.119999,11.2 c -6.83161,-0.957059 -4.295702,-5.187091 0.794881,-3.73083 2.023118,0.836999 2.468725,6.653315 -0.794881,3.73083 z m 11.68,-4.16 c 0.733032,-1.445023 1.205219,1.349064 0,0 z m 3.666851,-9.050138 c -1.886172,-2.960309 2.9375,2.004243 0,0 z M 56.513739,74.404312 c -2.670807,-2.822181 3.619095,0.176427 0,0 z m -2.427245,-3.494653 c -2.989169,-6.255796 8.632716,-4.736821 2.628779,0.04202 -0.793684,0.480367 -1.849085,0.454189 -2.628779,-0.04202 z m -4.084448,-1.402083 c 0.307222,-4.509098 2.73421,1.78623 0,0 z"
   />
  </g>
</svg>
